<mxfile host="app.diagrams.net" agent="Mozilla/5.0 (Windows NT 10.0; Win64; x64) AppleWebKit/537.36 (KHTML, like Gecko) Chrome/141.0.0.0 Safari/537.36" version="28.2.7">
  <diagram name="Seite-1" id="uO2UrZivr9gvkJktDG5o">
    <mxGraphModel dx="1181" dy="650" grid="1" gridSize="10" guides="1" tooltips="1" connect="1" arrows="1" fold="1" page="1" pageScale="1" pageWidth="827" pageHeight="1169" math="0" shadow="0">
      <root>
        <mxCell id="0" />
        <mxCell id="1" parent="0" />
        <mxCell id="SVEBSsm7RerCGnV4KXjt-17" style="edgeStyle=orthogonalEdgeStyle;rounded=0;orthogonalLoop=1;jettySize=auto;html=1;exitX=1;exitY=0.5;exitDx=0;exitDy=0;entryX=0;entryY=0.5;entryDx=0;entryDy=0;" edge="1" parent="1" source="SVEBSsm7RerCGnV4KXjt-1">
          <mxGeometry relative="1" as="geometry">
            <mxPoint x="320" y="160" as="targetPoint" />
          </mxGeometry>
        </mxCell>
        <mxCell id="SVEBSsm7RerCGnV4KXjt-26" value="" style="group" vertex="1" connectable="0" parent="1">
          <mxGeometry x="160" y="120" width="120" height="80" as="geometry" />
        </mxCell>
        <mxCell id="SVEBSsm7RerCGnV4KXjt-1" value="" style="rounded=0;whiteSpace=wrap;html=1;fillColor=#dae8fc;strokeColor=#6c8ebf;" vertex="1" parent="SVEBSsm7RerCGnV4KXjt-26">
          <mxGeometry width="120" height="80" as="geometry" />
        </mxCell>
        <mxCell id="SVEBSsm7RerCGnV4KXjt-2" value="" style="endArrow=none;html=1;rounded=0;strokeWidth=4;curved=0;" edge="1" parent="SVEBSsm7RerCGnV4KXjt-26">
          <mxGeometry width="50" height="50" relative="1" as="geometry">
            <mxPoint x="30" y="59.75999999999999" as="sourcePoint" />
            <mxPoint x="50" y="59.75999999999999" as="targetPoint" />
          </mxGeometry>
        </mxCell>
        <mxCell id="SVEBSsm7RerCGnV4KXjt-3" value="" style="endArrow=none;html=1;rounded=0;strokeWidth=4;curved=0;" edge="1" parent="SVEBSsm7RerCGnV4KXjt-26">
          <mxGeometry width="50" height="50" relative="1" as="geometry">
            <mxPoint x="50" y="59.75999999999999" as="sourcePoint" />
            <mxPoint x="50" y="19.75999999999999" as="targetPoint" />
          </mxGeometry>
        </mxCell>
        <mxCell id="SVEBSsm7RerCGnV4KXjt-4" value="" style="endArrow=none;html=1;rounded=0;strokeWidth=4;curved=0;" edge="1" parent="SVEBSsm7RerCGnV4KXjt-26">
          <mxGeometry width="50" height="50" relative="1" as="geometry">
            <mxPoint x="50" y="19.75999999999999" as="sourcePoint" />
            <mxPoint x="70" y="19.75999999999999" as="targetPoint" />
          </mxGeometry>
        </mxCell>
        <mxCell id="SVEBSsm7RerCGnV4KXjt-5" value="" style="endArrow=none;html=1;rounded=0;strokeWidth=4;curved=0;" edge="1" parent="SVEBSsm7RerCGnV4KXjt-26">
          <mxGeometry width="50" height="50" relative="1" as="geometry">
            <mxPoint x="70" y="59.75999999999999" as="sourcePoint" />
            <mxPoint x="70" y="19.75999999999999" as="targetPoint" />
          </mxGeometry>
        </mxCell>
      </root>
    </mxGraphModel>
  </diagram>
</mxfile>
